<svg xmlns="http://www.w3.org/2000/svg" width="1024" height="1024" viewBox="0 0 1024 1024" version="1.1"><path d="M 0 512.001 L 0 1024.002 512.250 1023.751 L 1024.500 1023.500 1024.751 511.750 L 1025.002 0 512.501 0 L 0 0 0 512.001 M 0.496 512.500 C 0.496 794.100, 0.610 909.151, 0.750 768.168 C 0.890 627.186, 0.890 396.786, 0.750 256.168 C 0.610 115.551, 0.496 230.900, 0.496 512.500 M 395.459 97.880 C 390.527 100.120, 386.426 104.807, 385.044 109.781 C 384.428 111.999, 384.009 127.120, 384.006 147.250 L 384 181 307.750 181.006 C 257.080 181.009, 230.218 181.367, 227.679 182.072 C 225.578 182.656, 222.087 184.734, 219.921 186.690 C 212.353 193.527, 212.960 159.942, 213.244 556.525 L 213.500 912.500 215.871 917.316 C 217.361 920.342, 219.750 923.130, 222.298 924.816 L 226.354 927.500 509.229 927.755 L 792.105 928.010 797.096 925.863 C 802.890 923.371, 808.182 917.672, 809.839 912.142 C 811.424 906.854, 811.511 203.379, 809.928 197.679 C 808.618 192.962, 802.979 186.574, 797.568 183.678 C 793.505 181.502, 793.414 181.500, 716.750 181.220 L 640 180.941 640 147.438 C 640 110.970, 639.822 109.623, 634.197 103.624 C 632.714 102.041, 629.250 99.683, 626.500 98.383 L 621.500 96.020 510.500 96.032 C 404.960 96.043, 399.301 96.134, 395.459 97.880 M 457.500 342 C 453.114 344.031, 453.224 344.626, 457.673 342.934 C 459.214 342.348, 462.956 341.503, 465.988 341.056 L 471.500 340.244 466.500 340.196 C 463.644 340.169, 459.784 340.942, 457.500 342 M 497.321 344.964 C 501.073 346.564, 504.872 348.465, 505.763 349.187 C 507.008 350.196, 507.207 350.205, 506.619 349.228 C 505.608 347.546, 494.548 341.993, 492.279 342.027 C 491.300 342.042, 493.570 343.364, 497.321 344.964 M 524 365.225 C 524 365.598, 526.025 368.801, 528.500 372.341 C 530.975 375.882, 533 379.223, 533 379.767 C 533 380.310, 533.765 381.373, 534.701 382.128 C 537.003 383.986, 529.380 370.153, 526.377 367.023 C 525.070 365.660, 524 364.851, 524 365.225 M 537.007 386.583 C 537.003 387.179, 537.337 387.998, 537.750 388.403 C 538.163 388.808, 539.018 391.020, 539.652 393.320 C 540.703 397.134, 540.812 397.237, 540.895 394.500 C 540.946 392.850, 540.093 390.150, 539 388.500 C 537.907 386.850, 537.010 385.988, 537.007 386.583 M 408.456 417.500 C 408.950 426.851, 417.255 442.385, 426.101 450.500 C 428.048 452.286, 427.312 451.073, 424.282 447.500 C 416.053 437.797, 410.449 425.990, 408.617 414.500 C 408.354 412.850, 408.282 414.200, 408.456 417.500 M 515.016 457.229 C 510.476 461.543, 509.525 462.806, 511.843 461.444 C 514.467 459.903, 523.099 450.894, 521.817 451.035 C 521.643 451.054, 518.582 453.841, 515.016 457.229 M 456.271 480.811 C 455.595 481.241, 458.070 481.434, 461.771 481.241 C 471.417 480.738, 472.622 480.248, 464.500 480.131 C 460.650 480.076, 456.947 480.382, 456.271 480.811 M 514.943 512.346 C 516.349 515.220, 517.639 517.251, 517.808 516.860 C 518.181 516.001, 514.365 508.343, 513.207 507.628 C 512.755 507.349, 513.536 509.472, 514.943 512.346 M 414.098 517.469 C 412.944 520.552, 412.038 524.296, 412.085 525.788 C 412.145 527.707, 412.543 527.039, 413.447 523.500 C 414.150 520.750, 415.249 517.200, 415.890 515.611 C 416.531 514.023, 416.862 512.529, 416.626 512.292 C 416.389 512.056, 415.251 514.385, 414.098 517.469 M 344.690 595.807 C 342.110 598.426, 340 600.912, 340 601.332 C 340 601.752, 342.298 599.797, 345.107 596.988 C 347.916 594.179, 350.026 591.693, 349.797 591.464 C 349.567 591.234, 347.269 593.189, 344.690 595.807 M 350.951 625.235 C 349.179 628.114, 348.499 629.831, 349.438 629.051 C 351.097 627.675, 355.479 620, 354.606 620 C 354.367 620, 352.722 622.356, 350.951 625.235 M 310.462 668.462 C 310.075 671.558, 309.974 674.308, 310.238 674.572 C 310.502 674.836, 311.018 672.502, 311.385 669.385 C 311.751 666.268, 311.851 663.518, 311.608 663.274 C 311.364 663.031, 310.848 665.365, 310.462 668.462 M 308.832 687.780 C 308.649 691.510, 308.778 696.122, 309.118 698.030 C 309.486 700.093, 309.790 697.344, 309.868 691.250 C 310.017 679.704, 309.339 677.435, 308.832 687.780 M 417.059 685.034 C 417.026 685.878, 419.569 689.028, 422.709 692.034 L 428.418 697.500 423.959 692.446 C 421.507 689.666, 418.964 686.516, 418.309 685.446 C 417.400 683.961, 417.104 683.864, 417.059 685.034 M 557.449 729.500 C 556.652 731.425, 555.319 734.644, 554.487 736.654 C 553.655 738.663, 553.148 740.482, 553.362 740.695 C 553.575 740.908, 554.445 739.377, 555.294 737.291 C 556.143 735.206, 557.556 731.813, 558.432 729.750 C 559.309 727.688, 559.773 726, 559.462 726 C 559.152 726, 558.246 727.575, 557.449 729.500 M 547.436 750.250 C 545.877 752.587, 543.714 755.511, 542.630 756.746 C 541.546 757.981, 540.898 759.231, 541.190 759.523 C 541.778 760.111, 545.387 755.531, 548.890 749.750 C 551.988 744.638, 550.940 744.999, 547.436 750.250 M 356.450 759.794 C 360.349 765.218, 365 769.839, 365 768.289 C 365 767.707, 363.875 766.493, 362.500 765.592 C 361.125 764.691, 360 763.289, 360 762.477 C 360 761.665, 359.540 761, 358.979 761 C 358.417 761, 357.456 759.900, 356.843 758.555 C 356.230 757.210, 355.130 755.880, 354.398 755.599 C 353.666 755.318, 354.589 757.206, 356.450 759.794 M 564.720 765.500 C 562.683 768.525, 561.354 771, 561.767 771 C 562.511 771, 563.529 769.566, 567.272 763.250 C 570.315 758.115, 568.787 759.462, 564.720 765.500 M 538.127 762.762 C 537.608 763.732, 533.768 767.433, 529.592 770.988 C 525.416 774.543, 522 777.895, 522 778.438 C 522 778.981, 524.138 777.319, 526.750 774.746 C 529.362 772.173, 531.832 770.048, 532.239 770.024 C 533.475 769.950, 541.334 761, 540.163 761 C 539.562 761, 538.646 761.793, 538.127 762.762 M 533.359 798.923 C 529.533 801.256, 528.272 803.003, 530.913 802.313 C 532.562 801.881, 538.097 796.993, 536.924 797.004 C 536.691 797.006, 535.087 797.869, 533.359 798.923 M 437.331 804.664 C 438.079 805.412, 446.059 805.275, 446.833 804.501 C 447.108 804.225, 444.933 804, 442 804 C 439.067 804, 436.965 804.299, 437.331 804.664 M 463 827 L 458.500 827.700 462.500 827.731 C 464.700 827.749, 467.850 827.420, 469.500 827 C 472.141 826.328, 472.201 826.240, 470 826.269 C 468.625 826.286, 465.475 826.615, 463 827 M 434.083 827.372 C 434.313 827.576, 436.750 828.018, 439.500 828.352 C 442.866 828.762, 443.846 828.664, 442.500 828.051 C 440.599 827.185, 433.206 826.589, 434.083 827.372" stroke="none" fill="#ffffff" fill-rule="evenodd"/><path d="M 397.664 97.212 C 395.554 97.777, 392.309 99.757, 390.455 101.612 C 384.492 107.575, 384 111.161, 384 148.664 L 384 181.965 304.672 182.232 L 225.344 182.500 221.563 185.384 C 213.740 191.352, 214.047 188.181, 214.022 263.250 L 214 330 512 330 L 810 330 810 263.960 C 810 201.013, 809.911 197.747, 808.097 194.210 C 805.633 189.405, 802.568 186.608, 797 184.084 C 792.598 182.088, 790.838 182.043, 716.298 182.022 L 640.096 182 639.798 147.169 L 639.500 112.339 636.500 107.525 C 634.414 104.179, 631.824 101.766, 628 99.606 L 622.500 96.500 512 96.343 C 439.039 96.239, 400.197 96.534, 397.664 97.212" stroke="none" fill="#28282a" fill-rule="evenodd"/><path d="M 213.243 621.750 L 213.500 912.500 215.871 917.316 C 217.361 920.342, 219.750 923.130, 222.298 924.816 L 226.354 927.500 509.229 927.755 L 792.105 928.010 797.096 925.863 C 802.890 923.371, 808.182 917.672, 809.839 912.142 C 810.709 909.241, 811 835.786, 811 619.634 L 811 331 511.993 331 L 212.987 331 213.243 621.750 M 455.931 342.514 C 444.610 347.271, 432.750 356.214, 424.064 366.546 C 414.557 377.853, 413.506 379.693, 411.417 388.702 C 410.552 392.431, 409.384 396.037, 408.821 396.716 C 408.192 397.473, 407.953 402.873, 408.200 410.724 C 408.588 423.080, 408.723 423.743, 412.292 430.898 C 417.280 440.896, 422.980 448.210, 430.080 453.724 C 433.336 456.252, 436 458.835, 436 459.464 C 436 460.093, 441.691 463.263, 448.646 466.509 C 460.682 472.125, 461.706 472.421, 469.896 472.642 C 483.798 473.017, 493.392 470.914, 505.008 464.947 C 515.049 459.789, 515.056 459.783, 524.972 447.190 C 533.498 436.362, 535.321 433.364, 537.946 425.846 C 540.723 417.894, 541 415.964, 541 404.587 L 541 392.075 534.850 380.787 C 531.468 374.579, 526.636 367.076, 524.112 364.114 C 518.815 357.895, 506.738 348.409, 499.493 344.777 C 489.226 339.629, 465.704 338.408, 455.931 342.514 M 455.540 481.280 C 454.463 481.951, 449.738 483.850, 445.040 485.500 C 438.396 487.834, 436.435 488.956, 436.206 490.556 C 436.017 491.879, 434.779 492.948, 432.732 493.556 C 428.751 494.738, 420.246 504.959, 415.738 513.978 L 412.500 520.456 412.232 596.864 C 411.973 670.562, 412.031 673.387, 413.875 676.513 C 414.927 678.295, 416.105 681.271, 416.494 683.127 C 416.893 685.031, 419.008 688.399, 421.351 690.859 C 426.940 696.731, 440.407 705.361, 446.292 706.843 C 449.804 707.728, 469.288 708.027, 519.685 707.972 C 557.422 707.931, 588.646 708.258, 589.073 708.699 C 590.287 709.954, 632.156 776.319, 632.794 778 C 633.944 781.032, 658.827 817.568, 661.125 819.599 C 662.431 820.754, 666.542 822.891, 670.261 824.349 C 675.770 826.509, 678.662 827, 685.888 827 C 696.023 827, 699.421 825.888, 708.199 819.698 C 713.196 816.173, 714.799 814.198, 719.032 806.346 L 724 797.130 723.990 787.315 L 723.980 777.500 689.923 722.500 C 671.192 692.250, 655.109 666.811, 654.183 665.968 C 649.909 662.079, 642.249 652.076, 640.497 648.097 C 638.930 644.539, 637.595 643.234, 633.529 641.293 C 630.763 639.972, 627.262 638.216, 625.749 637.391 C 621.965 635.326, 612.851 633.047, 609.373 633.295 C 606.526 633.498, 606.490 633.431, 605.434 625.884 C 604.223 617.241, 600.600 611.229, 592.842 604.991 L 588.500 601.500 553.800 601.213 L 519.100 600.926 518.800 558.713 C 518.458 510.527, 519.283 515.118, 508.601 502.017 C 500.502 492.083, 497.715 489.709, 490 486.173 C 478.420 480.865, 460.333 478.297, 455.540 481.280 M 380 568.592 C 378.075 569.424, 375.083 571.476, 373.350 573.152 C 371.255 575.178, 369.581 576.005, 368.350 575.621 C 367.001 575.201, 365.888 575.986, 364.241 578.522 C 362.998 580.435, 361.509 582, 360.932 582 C 359.937 582, 357.674 583.938, 345.291 595.395 C 342.381 598.087, 340 600.971, 340 601.804 C 340 602.637, 338.211 605.688, 336.024 608.585 C 327.716 619.588, 320.721 632.483, 316.812 644 C 311.799 658.771, 311.079 662.410, 309.635 680.292 C 308.440 695.078, 308.441 695.092, 311.547 710.792 C 314.980 728.143, 321.509 747.444, 326.660 755.471 C 336.393 770.637, 342.453 778.430, 351 786.770 C 361.614 797.128, 380.364 810.462, 391.298 815.430 C 399.914 819.344, 417.036 824.535, 428.325 826.655 C 440.016 828.851, 462.796 828.487, 474.491 825.919 C 485.784 823.438, 505 817.139, 505 815.917 C 505 815.413, 505.688 815, 506.529 815 C 508.582 815, 519.995 809.246, 522.512 806.940 C 523.619 805.927, 526.544 804.189, 529.012 803.078 C 534.688 800.524, 557.133 778.788, 562.654 770.500 C 569.570 760.118, 578.216 742.936, 579.971 736.088 C 581.413 730.465, 581.466 729.028, 580.339 726.279 C 578.355 721.441, 574.906 719.604, 569.261 720.378 C 562.715 721.275, 559.031 725.156, 555.072 735.322 C 553.321 739.820, 549.776 746.586, 547.194 750.358 C 544.612 754.130, 542.050 757.955, 541.500 758.858 C 540.197 760.998, 529.419 771.530, 525.250 774.737 C 523.462 776.112, 522 777.774, 522 778.431 C 522 779.584, 516.774 784, 515.409 784 C 515.040 784, 510.806 786.250, 506 789 C 501.194 791.750, 496.466 794, 495.492 794 C 494.518 794, 491.575 795.321, 488.951 796.935 C 485.556 799.024, 480.911 800.505, 472.841 802.071 C 457.475 805.054, 455.136 805.226, 442.858 804.281 C 436.651 803.803, 431.617 803.839, 430.780 804.367 C 429.820 804.972, 428.392 804.648, 426.467 803.386 C 424.885 802.349, 421.994 801.457, 420.045 801.404 C 418.095 801.351, 412.675 799.489, 408 797.265 C 403.325 795.041, 398.400 792.889, 397.055 792.482 C 390.863 790.607, 365 771.236, 365 768.474 C 365 767.790, 363.875 766.493, 362.500 765.592 C 361.125 764.691, 360 763.514, 360 762.977 C 360 762.440, 359.212 761.147, 358.250 760.105 C 347.821 748.812, 338.726 729.121, 334.438 708.553 C 331.894 696.353, 331.806 695.049, 332.905 685.978 C 333.547 680.683, 333.806 675.657, 333.480 674.810 C 332.814 673.072, 336.642 657.016, 338.073 655.550 C 338.583 655.027, 339 653.400, 339 651.933 C 339 649.211, 348.070 629.693, 349.846 628.595 C 350.384 628.263, 352.653 624.660, 354.887 620.588 C 357.833 615.220, 361.017 611.329, 366.475 606.425 C 370.614 602.706, 374 598.891, 374 597.949 C 374 596.931, 376.741 594.460, 380.746 591.867 C 384.456 589.465, 389.181 585.985, 391.246 584.134 C 394.498 581.218, 395 580.183, 395 576.400 C 395 572.169, 394.846 571.956, 390.033 569.517 C 384.270 566.596, 384.554 566.623, 380 568.592" stroke="none" fill="#74e506" fill-rule="evenodd"/><path d="M 268.250 181.750 C 289.563 181.900, 324.438 181.900, 345.750 181.750 C 367.063 181.599, 349.625 181.476, 307 181.476 C 264.375 181.476, 246.938 181.599, 268.250 181.750 M 677.250 181.750 C 698.013 181.901, 731.988 181.901, 752.750 181.750 C 773.513 181.599, 756.525 181.475, 715 181.475 C 673.475 181.475, 656.488 181.599, 677.250 181.750 M 213.243 265.250 L 213 331 512 331 L 811 331 810.757 265.250 L 810.515 199.500 810.250 264.750 L 809.986 330 512 330 L 214.014 330 213.750 264.750 L 213.485 199.500 213.243 265.250 M 466.381 341 C 457.918 342.240, 448.524 345.860, 444.230 349.535 C 442.003 351.441, 439.524 353, 438.720 353 C 437.076 353, 424.582 365.454, 420.065 371.597 C 412.367 382.064, 408.430 394.791, 408.648 408.500 C 408.918 425.449, 415.052 438.329, 429.679 452.663 C 437.636 460.460, 440.481 462.523, 448.765 466.500 C 456.905 470.407, 459.974 471.331, 467.500 472.137 C 491.610 474.719, 509.828 466.120, 527.724 443.713 C 536.774 432.381, 541 420.610, 541 406.733 C 541 398.944, 539.522 390.373, 537.864 388.550 C 537.389 388.028, 537 386.860, 537 385.955 C 537 385.050, 536.100 383.495, 535 382.500 C 533.900 381.505, 533 380.260, 533 379.734 C 533 379.209, 530.975 375.882, 528.500 372.341 C 526.025 368.801, 524 365.272, 524 364.499 C 524 363.726, 522.843 362.285, 521.430 361.297 C 520.016 360.309, 516.304 357.325, 513.180 354.667 C 505.724 348.323, 494.783 343.152, 485.206 341.444 C 476.769 339.939, 474.054 339.875, 466.381 341 M 450 483.805 C 440.332 487.296, 436 489.685, 436 491.526 C 436 492.337, 435.165 493, 434.145 493 C 432.028 493, 423.524 501.618, 419.807 507.530 C 418.435 509.714, 416.229 514.425, 414.906 518 C 412.518 524.451, 412.498 524.832, 412.201 568.839 C 412.025 594.993, 412.282 613.654, 412.828 614.339 C 413.337 614.978, 413.390 616.400, 412.947 617.500 C 411.700 620.594, 411.839 665.136, 413.115 671.201 C 414.790 679.165, 418.806 686.899, 424.272 692.687 C 429.811 698.552, 440.434 705.308, 446.695 706.949 C 449.562 707.700, 472.643 708.024, 519.594 707.972 C 557.381 707.931, 588.647 708.258, 589.075 708.699 C 589.503 709.139, 603.116 730.495, 619.325 756.155 C 635.534 781.816, 650.663 805.559, 652.945 808.919 C 660.875 820.596, 672.176 827.010, 684.788 826.989 C 700.167 826.964, 710.954 820.465, 718.926 806.418 C 722.876 799.460, 723.401 797.782, 723.803 790.845 C 724.417 780.229, 722.691 775.467, 712.076 758.500 C 707.259 750.800, 701.559 741.659, 699.409 738.187 C 697.259 734.714, 693.600 728.864, 691.278 725.187 C 688.956 721.509, 686.124 716.925, 684.985 715 C 683.846 713.075, 679.586 706.325, 675.518 700 C 671.450 693.675, 665.399 683.978, 662.073 678.451 C 658.746 672.925, 655.231 667.510, 654.262 666.418 C 646.868 658.087, 642.201 652.036, 641.132 649.392 C 638.606 643.145, 625.475 636.146, 613.499 634.663 L 605.403 633.660 605.276 628.216 C 605.117 621.453, 603.760 617.930, 598.755 611.297 C 596.168 607.868, 593.086 605.225, 589.718 603.547 L 584.607 601 551.846 601 L 519.084 601 518.792 560.226 L 518.500 519.453 515.228 512.808 C 510.854 503.928, 503.908 495.851, 496 490.449 C 486.474 483.942, 479.484 481.717, 467.500 481.379 C 458.716 481.131, 456.588 481.426, 450 483.805 M 380.422 568.418 C 378.730 569.156, 375.805 571.102, 373.922 572.744 C 372.040 574.387, 369.468 576.052, 368.207 576.446 C 366.071 577.113, 361.453 581.112, 348.510 593.500 C 345.637 596.250, 340.052 602.974, 336.098 608.443 C 317.441 634.250, 309.035 662.159, 310.329 694 C 311.601 725.306, 321.793 751.908, 341.838 776.244 C 363.123 802.085, 392.944 819.804, 424.910 825.604 C 440.920 828.509, 468.497 827.777, 477.147 824.217 C 478.603 823.618, 480.046 823.380, 480.354 823.687 C 480.662 823.995, 481.721 823.899, 482.707 823.473 C 483.693 823.048, 485.270 822.548, 486.210 822.362 C 488.959 821.820, 500.407 817.803, 501.500 816.998 C 502.050 816.592, 504.289 815.684, 506.476 814.978 C 509.867 813.884, 518.701 808.747, 532.837 799.648 C 536.578 797.240, 549.454 786.067, 549.585 785.115 C 549.631 784.777, 552.445 781.614, 555.838 778.086 C 559.230 774.559, 561.814 771.481, 561.579 771.246 C 561.345 771.011, 563.176 767.823, 565.650 764.160 C 571.102 756.085, 578.466 741.193, 580.129 734.876 C 582.428 726.148, 576.867 719.193, 568.583 720.435 C 563.128 721.253, 561.033 723.536, 557.049 733 C 553.092 742.401, 547.693 752.298, 543.685 757.500 C 539.577 762.832, 533.065 770.039, 532.625 769.740 C 532.432 769.608, 529.067 772.524, 525.149 776.221 C 521.231 779.917, 516.332 783.787, 514.262 784.821 C 512.193 785.855, 505.289 789.427, 498.921 792.761 C 492.553 796.094, 484.903 799.550, 481.921 800.440 C 472.847 803.151, 459.062 804.947, 448 804.860 C 431.342 804.729, 428.637 804.525, 426.316 803.224 C 425.114 802.551, 423.011 802, 421.641 802 C 415.390 802, 390.764 790.539, 380.072 782.654 C 355.276 764.367, 340.136 739.515, 334.007 707.038 C 327.532 672.728, 341.083 630.572, 366.572 605.736 C 370.656 601.756, 373.998 598.050, 373.999 597.500 C 374 596.567, 382.915 589.664, 389.334 585.627 C 392.385 583.708, 395 578.600, 395 574.561 C 395 572.498, 394.030 571.615, 389.470 569.529 C 386.429 568.138, 383.842 567.018, 383.720 567.039 C 383.599 567.061, 382.115 567.681, 380.422 568.418" stroke="none" fill="#2276bc" fill-rule="evenodd"/></svg>